<mxfile host="drawio-plugin" modified="2023-02-17T21:37:31.558Z" agent="5.0 (Windows NT 6.2; Win64; x64) AppleWebKit/537.36 (KHTML, like Gecko) Chrome/97.0.4692.45 Safari/537.36" etag="BPcYpr4ZHQUGpS2l4ZBP" version="20.5.3" type="embed"><diagram id="TqJKKpAt_f0XUR_mfn19" name="Page-1"><mxGraphModel dx="626" dy="527" grid="1" gridSize="10" guides="1" tooltips="1" connect="1" arrows="1" fold="1" page="1" pageScale="1" pageWidth="827" pageHeight="1169" math="0" shadow="0"><root><mxCell id="0"/><mxCell id="1" parent="0"/><mxCell id="GTqaI5zs6q6qDNkmL9B8-1" value="Състояния (States)" style="rounded=1;whiteSpace=wrap;html=1;verticalAlign=top;" parent="1" vertex="1"><mxGeometry x="220" y="140" width="370" height="190" as="geometry"/></mxCell><mxCell id="GTqaI5zs6q6qDNkmL9B8-18" value="" style="shape=table;html=1;whiteSpace=wrap;startSize=0;container=1;collapsible=0;childLayout=tableLayout;swimlaneLine=1;dashed=1;" parent="1" vertex="1"><mxGeometry x="258" y="170" width="293" height="130" as="geometry"/></mxCell><mxCell id="GTqaI5zs6q6qDNkmL9B8-19" value="" style="shape=tableRow;horizontal=0;startSize=0;swimlaneHead=0;swimlaneBody=0;top=0;left=0;bottom=0;right=0;collapsible=0;dropTarget=0;fillColor=none;points=[[0,0.5],[1,0.5]];portConstraint=eastwest;" parent="GTqaI5zs6q6qDNkmL9B8-18" vertex="1"><mxGeometry width="293" height="32" as="geometry"/></mxCell><mxCell id="GTqaI5zs6q6qDNkmL9B8-20" value="(20)" style="shape=partialRectangle;html=1;whiteSpace=wrap;connectable=0;fillColor=none;top=0;left=0;bottom=0;right=0;overflow=hidden;" parent="GTqaI5zs6q6qDNkmL9B8-19" vertex="1"><mxGeometry width="74" height="32" as="geometry"><mxRectangle width="74" height="32" as="alternateBounds"/></mxGeometry></mxCell><mxCell id="GTqaI5zs6q6qDNkmL9B8-21" value="(20)" style="shape=partialRectangle;html=1;whiteSpace=wrap;connectable=0;fillColor=none;top=0;left=0;bottom=0;right=0;overflow=hidden;" parent="GTqaI5zs6q6qDNkmL9B8-19" vertex="1"><mxGeometry x="74" width="73" height="32" as="geometry"><mxRectangle width="73" height="32" as="alternateBounds"/></mxGeometry></mxCell><mxCell id="GTqaI5zs6q6qDNkmL9B8-22" value="(20)" style="shape=partialRectangle;html=1;whiteSpace=wrap;connectable=0;fillColor=none;top=0;left=0;bottom=0;right=0;overflow=hidden;" parent="GTqaI5zs6q6qDNkmL9B8-19" vertex="1"><mxGeometry x="147" width="73" height="32" as="geometry"><mxRectangle width="73" height="32" as="alternateBounds"/></mxGeometry></mxCell><mxCell id="GTqaI5zs6q6qDNkmL9B8-44" value="(20)" style="shape=partialRectangle;html=1;whiteSpace=wrap;connectable=0;fillColor=none;top=0;left=0;bottom=0;right=0;overflow=hidden;" parent="GTqaI5zs6q6qDNkmL9B8-19" vertex="1"><mxGeometry x="220" width="73" height="32" as="geometry"><mxRectangle width="73" height="32" as="alternateBounds"/></mxGeometry></mxCell><mxCell id="GTqaI5zs6q6qDNkmL9B8-23" value="" style="shape=tableRow;horizontal=0;startSize=0;swimlaneHead=0;swimlaneBody=0;top=0;left=0;bottom=0;right=0;collapsible=0;dropTarget=0;fillColor=none;points=[[0,0.5],[1,0.5]];portConstraint=eastwest;" parent="GTqaI5zs6q6qDNkmL9B8-18" vertex="1"><mxGeometry y="32" width="293" height="33" as="geometry"/></mxCell><mxCell id="GTqaI5zs6q6qDNkmL9B8-24" value="(20)" style="shape=partialRectangle;html=1;whiteSpace=wrap;connectable=0;fillColor=none;top=0;left=0;bottom=0;right=0;overflow=hidden;" parent="GTqaI5zs6q6qDNkmL9B8-23" vertex="1"><mxGeometry width="74" height="33" as="geometry"><mxRectangle width="74" height="33" as="alternateBounds"/></mxGeometry></mxCell><mxCell id="GTqaI5zs6q6qDNkmL9B8-25" value="(20)" style="shape=partialRectangle;html=1;whiteSpace=wrap;connectable=0;fillColor=none;top=0;left=0;bottom=0;right=0;overflow=hidden;" parent="GTqaI5zs6q6qDNkmL9B8-23" vertex="1"><mxGeometry x="74" width="73" height="33" as="geometry"><mxRectangle width="73" height="33" as="alternateBounds"/></mxGeometry></mxCell><mxCell id="GTqaI5zs6q6qDNkmL9B8-26" value="(20)" style="shape=partialRectangle;html=1;whiteSpace=wrap;connectable=0;fillColor=none;top=0;left=0;bottom=0;right=0;overflow=hidden;" parent="GTqaI5zs6q6qDNkmL9B8-23" vertex="1"><mxGeometry x="147" width="73" height="33" as="geometry"><mxRectangle width="73" height="33" as="alternateBounds"/></mxGeometry></mxCell><mxCell id="GTqaI5zs6q6qDNkmL9B8-45" value="(20)" style="shape=partialRectangle;html=1;whiteSpace=wrap;connectable=0;fillColor=none;top=0;left=0;bottom=0;right=0;overflow=hidden;" parent="GTqaI5zs6q6qDNkmL9B8-23" vertex="1"><mxGeometry x="220" width="73" height="33" as="geometry"><mxRectangle width="73" height="33" as="alternateBounds"/></mxGeometry></mxCell><mxCell id="GTqaI5zs6q6qDNkmL9B8-27" value="" style="shape=tableRow;horizontal=0;startSize=0;swimlaneHead=0;swimlaneBody=0;top=0;left=0;bottom=0;right=0;collapsible=0;dropTarget=0;fillColor=none;points=[[0,0.5],[1,0.5]];portConstraint=eastwest;" parent="GTqaI5zs6q6qDNkmL9B8-18" vertex="1"><mxGeometry y="65" width="293" height="33" as="geometry"/></mxCell><mxCell id="GTqaI5zs6q6qDNkmL9B8-28" value="(20)" style="shape=partialRectangle;html=1;whiteSpace=wrap;connectable=0;fillColor=none;top=0;left=0;bottom=0;right=0;overflow=hidden;" parent="GTqaI5zs6q6qDNkmL9B8-27" vertex="1"><mxGeometry width="74" height="33" as="geometry"><mxRectangle width="74" height="33" as="alternateBounds"/></mxGeometry></mxCell><mxCell id="GTqaI5zs6q6qDNkmL9B8-29" value="(20)" style="shape=partialRectangle;html=1;whiteSpace=wrap;connectable=0;fillColor=none;top=0;left=0;bottom=0;right=0;overflow=hidden;" parent="GTqaI5zs6q6qDNkmL9B8-27" vertex="1"><mxGeometry x="74" width="73" height="33" as="geometry"><mxRectangle width="73" height="33" as="alternateBounds"/></mxGeometry></mxCell><mxCell id="GTqaI5zs6q6qDNkmL9B8-30" value="(20)" style="shape=partialRectangle;html=1;whiteSpace=wrap;connectable=0;fillColor=none;top=0;left=0;bottom=0;right=0;overflow=hidden;pointerEvents=1;" parent="GTqaI5zs6q6qDNkmL9B8-27" vertex="1"><mxGeometry x="147" width="73" height="33" as="geometry"><mxRectangle width="73" height="33" as="alternateBounds"/></mxGeometry></mxCell><mxCell id="GTqaI5zs6q6qDNkmL9B8-46" value="(20)" style="shape=partialRectangle;html=1;whiteSpace=wrap;connectable=0;fillColor=none;top=0;left=0;bottom=0;right=0;overflow=hidden;pointerEvents=1;" parent="GTqaI5zs6q6qDNkmL9B8-27" vertex="1"><mxGeometry x="220" width="73" height="33" as="geometry"><mxRectangle width="73" height="33" as="alternateBounds"/></mxGeometry></mxCell><mxCell id="GTqaI5zs6q6qDNkmL9B8-47" style="shape=tableRow;horizontal=0;startSize=0;swimlaneHead=0;swimlaneBody=0;top=0;left=0;bottom=0;right=0;collapsible=0;dropTarget=0;fillColor=none;points=[[0,0.5],[1,0.5]];portConstraint=eastwest;" parent="GTqaI5zs6q6qDNkmL9B8-18" vertex="1"><mxGeometry y="98" width="293" height="32" as="geometry"/></mxCell><mxCell id="GTqaI5zs6q6qDNkmL9B8-48" value="(20)" style="shape=partialRectangle;html=1;whiteSpace=wrap;connectable=0;fillColor=none;top=0;left=0;bottom=0;right=0;overflow=hidden;" parent="GTqaI5zs6q6qDNkmL9B8-47" vertex="1"><mxGeometry width="74" height="32" as="geometry"><mxRectangle width="74" height="32" as="alternateBounds"/></mxGeometry></mxCell><mxCell id="GTqaI5zs6q6qDNkmL9B8-49" value="(20)" style="shape=partialRectangle;html=1;whiteSpace=wrap;connectable=0;fillColor=none;top=0;left=0;bottom=0;right=0;overflow=hidden;" parent="GTqaI5zs6q6qDNkmL9B8-47" vertex="1"><mxGeometry x="74" width="73" height="32" as="geometry"><mxRectangle width="73" height="32" as="alternateBounds"/></mxGeometry></mxCell><mxCell id="GTqaI5zs6q6qDNkmL9B8-50" value="(20)" style="shape=partialRectangle;html=1;whiteSpace=wrap;connectable=0;fillColor=none;top=0;left=0;bottom=0;right=0;overflow=hidden;pointerEvents=1;" parent="GTqaI5zs6q6qDNkmL9B8-47" vertex="1"><mxGeometry x="147" width="73" height="32" as="geometry"><mxRectangle width="73" height="32" as="alternateBounds"/></mxGeometry></mxCell><mxCell id="GTqaI5zs6q6qDNkmL9B8-51" value="(20)" style="shape=partialRectangle;html=1;whiteSpace=wrap;connectable=0;fillColor=none;top=0;left=0;bottom=0;right=0;overflow=hidden;pointerEvents=1;" parent="GTqaI5zs6q6qDNkmL9B8-47" vertex="1"><mxGeometry x="220" width="73" height="32" as="geometry"><mxRectangle width="73" height="32" as="alternateBounds"/></mxGeometry></mxCell><mxCell id="GTqaI5zs6q6qDNkmL9B8-63" value="&lt;font size=&quot;1&quot; style=&quot;&quot;&gt;&lt;b style=&quot;font-size: 11px;&quot;&gt;WTA&lt;/b&gt;&lt;/font&gt;" style="rounded=1;whiteSpace=wrap;html=1;verticalAlign=top;" parent="1" vertex="1"><mxGeometry x="175" y="410" width="430" height="130" as="geometry"/></mxCell><mxCell id="GTqaI5zs6q6qDNkmL9B8-64" value="ЛЯВО&lt;br&gt;(50)" style="ellipse;whiteSpace=wrap;html=1;aspect=fixed;verticalAlign=middle;" parent="1" vertex="1"><mxGeometry x="221" y="453" width="60" height="60" as="geometry"/></mxCell><mxCell id="GTqaI5zs6q6qDNkmL9B8-66" value="ДОЛУ&lt;br&gt;(50)" style="ellipse;whiteSpace=wrap;html=1;aspect=fixed;verticalAlign=middle;" parent="1" vertex="1"><mxGeometry x="311" y="453" width="60" height="60" as="geometry"/></mxCell><mxCell id="GTqaI5zs6q6qDNkmL9B8-67" value="ДЯСНО&lt;br&gt;(50)" style="ellipse;whiteSpace=wrap;html=1;aspect=fixed;verticalAlign=middle;" parent="1" vertex="1"><mxGeometry x="401" y="453" width="60" height="60" as="geometry"/></mxCell><mxCell id="GTqaI5zs6q6qDNkmL9B8-68" value="ГОРЕ&lt;br&gt;(50)" style="ellipse;whiteSpace=wrap;html=1;aspect=fixed;verticalAlign=middle;" parent="1" vertex="1"><mxGeometry x="491" y="453" width="60" height="60" as="geometry"/></mxCell><mxCell id="GTqaI5zs6q6qDNkmL9B8-71" value="" style="curved=1;endArrow=classic;html=1;rounded=0;exitX=1;exitY=0.5;exitDx=0;exitDy=0;entryX=0.5;entryY=0;entryDx=0;entryDy=0;" parent="1" source="GTqaI5zs6q6qDNkmL9B8-64" target="GTqaI5zs6q6qDNkmL9B8-64" edge="1"><mxGeometry width="50" height="50" relative="1" as="geometry"><mxPoint x="256" y="442" as="sourcePoint"/><mxPoint x="306" y="392" as="targetPoint"/><Array as="points"><mxPoint x="290" y="433"/><mxPoint x="270" y="433"/></Array></mxGeometry></mxCell><mxCell id="GTqaI5zs6q6qDNkmL9B8-72" value="10.5" style="edgeLabel;html=1;align=center;verticalAlign=middle;resizable=0;points=[];" parent="GTqaI5zs6q6qDNkmL9B8-71" vertex="1" connectable="0"><mxGeometry x="-0.1705" y="2" relative="1" as="geometry"><mxPoint x="-28" y="-12" as="offset"/></mxGeometry></mxCell><mxCell id="GTqaI5zs6q6qDNkmL9B8-75" value="" style="curved=1;endArrow=classic;html=1;rounded=0;entryX=0.5;entryY=0;entryDx=0;entryDy=0;exitX=1;exitY=0.5;exitDx=0;exitDy=0;" parent="1" source="GTqaI5zs6q6qDNkmL9B8-66" target="GTqaI5zs6q6qDNkmL9B8-66" edge="1"><mxGeometry width="50" height="50" relative="1" as="geometry"><mxPoint x="371" y="485" as="sourcePoint"/><mxPoint x="341" y="455" as="targetPoint"/><Array as="points"><mxPoint x="380" y="435"/><mxPoint x="360" y="435"/></Array></mxGeometry></mxCell><mxCell id="GTqaI5zs6q6qDNkmL9B8-77" value="" style="curved=1;endArrow=classic;html=1;rounded=0;" parent="1" edge="1"><mxGeometry width="50" height="50" relative="1" as="geometry"><mxPoint x="463" y="483" as="sourcePoint"/><mxPoint x="433" y="453" as="targetPoint"/><Array as="points"><mxPoint x="472" y="435"/><mxPoint x="452" y="435"/></Array></mxGeometry></mxCell><mxCell id="GTqaI5zs6q6qDNkmL9B8-79" value="" style="curved=1;endArrow=classic;html=1;rounded=0;exitX=1;exitY=0.5;exitDx=0;exitDy=0;" parent="1" source="GTqaI5zs6q6qDNkmL9B8-68" edge="1"><mxGeometry width="50" height="50" relative="1" as="geometry"><mxPoint x="551" y="485" as="sourcePoint"/><mxPoint x="520" y="453" as="targetPoint"/><Array as="points"><mxPoint x="560" y="435"/><mxPoint x="540" y="435"/></Array></mxGeometry></mxCell><mxCell id="a4FwwXCoUFe0xJ5x87Hu-8" value="" style="endArrow=classic;html=1;rounded=0;labelBackgroundColor=none;entryX=0;entryY=0;entryDx=0;entryDy=0;fillColor=#e6d0de;gradientColor=#d5739d;strokeColor=#996185;strokeWidth=4;exitX=0.077;exitY=1.046;exitDx=0;exitDy=0;exitPerimeter=0;" parent="1" source="GTqaI5zs6q6qDNkmL9B8-19" target="GTqaI5zs6q6qDNkmL9B8-64" edge="1"><mxGeometry width="50" height="50" relative="1" as="geometry"><mxPoint x="270" y="190" as="sourcePoint"/><mxPoint x="280" y="230" as="targetPoint"/></mxGeometry></mxCell><mxCell id="a4FwwXCoUFe0xJ5x87Hu-13" value="допамин" style="edgeLabel;html=1;align=center;verticalAlign=middle;resizable=0;points=[];" parent="a4FwwXCoUFe0xJ5x87Hu-8" vertex="1" connectable="0"><mxGeometry x="0.2464" y="2" relative="1" as="geometry"><mxPoint as="offset"/></mxGeometry></mxCell><mxCell id="a4FwwXCoUFe0xJ5x87Hu-9" value="" style="endArrow=classic;html=1;rounded=0;labelBackgroundColor=none;entryX=0;entryY=0;entryDx=0;entryDy=0;fillColor=#e6d0de;gradientColor=#d5739d;strokeColor=#996185;strokeWidth=4;exitX=0.124;exitY=1;exitDx=0;exitDy=0;exitPerimeter=0;" parent="1" source="GTqaI5zs6q6qDNkmL9B8-19" target="GTqaI5zs6q6qDNkmL9B8-66" edge="1"><mxGeometry width="50" height="50" relative="1" as="geometry"><mxPoint x="280" y="200" as="sourcePoint"/><mxPoint x="239.78679656440363" y="471.7867965644035" as="targetPoint"/></mxGeometry></mxCell><mxCell id="a4FwwXCoUFe0xJ5x87Hu-14" value="допамин" style="edgeLabel;html=1;align=center;verticalAlign=middle;resizable=0;points=[];" parent="a4FwwXCoUFe0xJ5x87Hu-9" vertex="1" connectable="0"><mxGeometry x="0.3196" y="-1" relative="1" as="geometry"><mxPoint as="offset"/></mxGeometry></mxCell><mxCell id="a4FwwXCoUFe0xJ5x87Hu-10" value="" style="endArrow=classic;html=1;rounded=0;labelBackgroundColor=none;fillColor=#e6d0de;gradientColor=#d5739d;strokeColor=#996185;strokeWidth=4;exitX=0.16;exitY=1.029;exitDx=0;exitDy=0;exitPerimeter=0;" parent="1" source="GTqaI5zs6q6qDNkmL9B8-19" target="GTqaI5zs6q6qDNkmL9B8-67" edge="1"><mxGeometry width="50" height="50" relative="1" as="geometry"><mxPoint x="290" y="210" as="sourcePoint"/><mxPoint x="329.78679656440363" y="471.7867965644035" as="targetPoint"/></mxGeometry></mxCell><mxCell id="a4FwwXCoUFe0xJ5x87Hu-15" value="допамин" style="edgeLabel;html=1;align=center;verticalAlign=middle;resizable=0;points=[];" parent="a4FwwXCoUFe0xJ5x87Hu-10" vertex="1" connectable="0"><mxGeometry x="0.2615" relative="1" as="geometry"><mxPoint as="offset"/></mxGeometry></mxCell><mxCell id="a4FwwXCoUFe0xJ5x87Hu-11" value="" style="endArrow=classic;html=1;rounded=0;labelBackgroundColor=none;fillColor=#e6d0de;gradientColor=#d5739d;strokeColor=#996185;strokeWidth=4;exitX=0.198;exitY=0.979;exitDx=0;exitDy=0;exitPerimeter=0;" parent="1" source="GTqaI5zs6q6qDNkmL9B8-19" edge="1"><mxGeometry width="50" height="50" relative="1" as="geometry"><mxPoint x="310" y="180" as="sourcePoint"/><mxPoint x="508.09893028677516" y="455.05064081045305" as="targetPoint"/></mxGeometry></mxCell><mxCell id="a4FwwXCoUFe0xJ5x87Hu-16" value="допамин" style="edgeLabel;html=1;align=center;verticalAlign=middle;resizable=0;points=[];" parent="a4FwwXCoUFe0xJ5x87Hu-11" vertex="1" connectable="0"><mxGeometry x="0.4091" y="-1" relative="1" as="geometry"><mxPoint as="offset"/></mxGeometry></mxCell><mxCell id="a4FwwXCoUFe0xJ5x87Hu-12" value="" style="group" parent="1" vertex="1" connectable="0"><mxGeometry x="140" y="180" width="40" height="40" as="geometry"/></mxCell><mxCell id="a4FwwXCoUFe0xJ5x87Hu-2" value="" style="endArrow=classic;startArrow=classic;html=1;rounded=0;labelBackgroundColor=none;" parent="a4FwwXCoUFe0xJ5x87Hu-12" edge="1"><mxGeometry width="50" height="50" relative="1" as="geometry"><mxPoint y="20" as="sourcePoint"/><mxPoint x="40" y="20" as="targetPoint"/></mxGeometry></mxCell><mxCell id="a4FwwXCoUFe0xJ5x87Hu-3" value="" style="endArrow=classic;startArrow=classic;html=1;rounded=0;labelBackgroundColor=none;" parent="a4FwwXCoUFe0xJ5x87Hu-12" edge="1"><mxGeometry width="50" height="50" relative="1" as="geometry"><mxPoint x="20" as="sourcePoint"/><mxPoint x="20" y="40" as="targetPoint"/></mxGeometry></mxCell><mxCell id="a4FwwXCoUFe0xJ5x87Hu-17" value="" style="endArrow=none;dashed=1;html=1;dashPattern=1 3;strokeWidth=2;rounded=0;labelBackgroundColor=none;entryX=0;entryY=0.5;entryDx=0;entryDy=0;" parent="1" target="GTqaI5zs6q6qDNkmL9B8-19" edge="1"><mxGeometry width="50" height="50" relative="1" as="geometry"><mxPoint x="160" y="200" as="sourcePoint"/><mxPoint x="320" y="320" as="targetPoint"/></mxGeometry></mxCell></root></mxGraphModel></diagram></mxfile>